<?xml version="1.0" encoding="UTF-8"?>
<!DOCTYPE svg PUBLIC "-//W3C//DTD SVG 1.1//EN" "http://www.w3.org/Graphics/SVG/1.1/DTD/svg11.dtd">
<!-- Creator: CorelDRAW 2018 (64-Bit) -->
<svg xmlns="http://www.w3.org/2000/svg" xml:space="preserve" width="9.84252in" height="9.84252in" version="1.1" style="shape-rendering:geometricPrecision; text-rendering:geometricPrecision; image-rendering:optimizeQuality; fill-rule:evenodd; clip-rule:evenodd"
viewBox="0 0 9842.52 9842.52"
 xmlns:xlink="http://www.w3.org/1999/xlink">
 <defs>
  <style type="text/css">
   <![CDATA[
    .fil2 {fill:black}
    .fil0 {fill:#0000FB}
    .fil1 {fill:#FB1115}
   ]]>
  </style>
 </defs>
 <g id="Layer_x0020_1">
  <metadata id="CorelCorpID_0Corel-Layer"/>
  <g id="_2094835468864">
   <path class="fil0" d="M3549.31 4253.26c-204.95,0 -393.35,-41.55 -535.15,-168.8l-229.8 -215.55c-174.8,-175 -291.75,-88.25 -423.95,43.15 -87.25,86.75 -121,153.7 -196.2,249.15 -265.6,337.05 -482.55,468.4 -482.55,954.05 0,59.8 72.9,35.45 137.65,22.95 331,-63.7 698.15,-318.6 892.5,-400.7 343.6,-145.15 345.3,-159.25 763.95,-299.15 132.85,-44.4 175,-65.6 329.05,-101.9 413.15,-97.35 955.65,-67.05 1344.65,69.3 285.2,99.95 525.75,313.05 706.75,543.15 34.15,43.4 57.15,66.8 86.3,114.85 30.7,50.65 51.25,86.1 80.65,134.85 111.05,184.1 180.5,356.35 274.9,558.35 44.8,95.95 87.2,199.3 122.3,294.3 138,373.5 195.35,541.75 298.05,951.75 72.8,290.65 85.65,419.05 126.95,706.3 15.85,110.5 8.15,519.85 45.3,586.85 67.55,121.95 169.15,94.65 307.6,94.65 239.15,0 503.45,-174.15 678.75,-326.85 145.15,-126.4 341.25,-452.5 341.25,-664.4 0,-208 1.7,-306.35 -86.2,-502.85 -45.75,-102.3 -99.5,-179.95 -160.6,-270.35 -169.15,-250.2 -442.2,-441.9 -654.95,-652.4l-552.7 -524.8c-150.55,-152.3 -403.95,-346.5 -574.8,-517.05 -142.65,-142.45 -274.35,-317.75 -381.7,-494.65 -93.6,-154.3 -219.05,-434.05 -148.6,-660.6 15.9,-51.15 45.3,-103.35 76,-139.5 28.6,-33.65 16.7,-19.8 50.9,-49.65 403.05,-352.15 989.9,-35.75 1345.8,143.45 52.55,26.5 95.05,52.2 146.95,82.95 366.55,216.8 1166.75,669.1 1600.8,669.1 316.15,0 416.6,-30.3 416.6,-373.5 0,-126.2 -94.05,-257.5 -166.95,-335.85 -2,-2.15 -4.8,-5.35 -6.85,-7.5 -207.8,-216.3 -615.1,-492.55 -874.05,-648.75 -587.5,-354.3 -1557.9,-327.3 -2165.5,-23.3 -281.95,141.1 -525.75,287.5 -790.2,445.3 -130.8,78 -251.15,144.65 -380.85,222.55 -406.8,244.55 -875.1,491.2 -1362.05,491.2l-0.01 -0.09z"/>
   <path class="fil1" d="M546.75 6695.51c16.75,201.3 678.75,515.45 867.05,569.6 118.95,34.2 228.75,100.1 334.95,153.5 401.6,201.9 711.2,275 1125.55,110.3 378.1,-150.2 506.1,-371.35 708.7,-742.3 229.5,-420.3 285.1,-561.3 456.65,-979.95 154.85,-377.8 356.7,-691.5 845.7,-691.5 363.95,0 704.95,326.95 919.45,344.8 -62,-266.15 -259.95,-421.35 -427.5,-578.15 -90.2,-84.35 -179.9,-150.1 -265.65,-237.2 -153.5,-155.85 -230.75,-161.6 -441.8,-161.6 -365.4,0 -548,198.9 -764.7,413.3l-302.25 286.75c-39.4,40.95 -50.75,66.3 -92.9,108.25 -366.55,364.7 -627.8,644.8 -1064.05,918.45 -150.1,94.1 -346.85,201.3 -515.8,274.35 -242.15,104.65 -728.05,151.35 -1024.65,167.75l-358.75 43.5 0 0.15z"/>
   <path class="fil2" d="M4080.86 2285.06c0,293.35 99.5,476.1 336.4,654.9 520.25,392.65 1180.25,266.3 1517.15,-238.05 215.7,-322.95 128.4,-764.2 -192.85,-1014.4 -772.55,-601.6 -1660.65,64.7 -1660.65,597.55l-0.05 0z"/>
  </g>
 </g>
</svg>
